<svg width="14" height="14" viewBox="0 0 14 14" fill="none" xmlns="http://www.w3.org/2000/svg">
<g clip-path="url(#clip0_41_9)">
<path fill-rule="evenodd" clip-rule="evenodd" d="M6.41525 2.01054C6.0069 2.37671 5.75 2.90835 5.75 3.5C5.75 4.60457 6.64543 5.5 7.75 5.5H8.5V6.25C8.5 7.2264 9.19968 8.03937 10.125 8.2149V9.25C10.125 9.64782 10.283 10.0294 10.5643 10.3107C10.8456 10.592 11.2272 10.75 11.625 10.75H0.625C1.02282 10.75 1.40436 10.592 1.68566 10.3107C1.96696 10.0294 2.125 9.64782 2.125 9.25V6C2.125 4.93913 2.54643 3.92172 3.29657 3.17157C4.04672 2.42143 5.06413 2 6.125 2C6.22217 2 6.31898 2.00354 6.41525 2.01054Z" fill="#ffffff"/>
<path fill-rule="evenodd" clip-rule="evenodd" d="M11.25 0.75C11.25 0.335786 10.9142 0 10.5 0C10.0858 0 9.75 0.335786 9.75 0.75V2.75H7.75C7.33579 2.75 7 3.08579 7 3.5C7 3.91421 7.33579 4.25 7.75 4.25H9.75V6.25C9.75 6.66421 10.0858 7 10.5 7C10.9142 7 11.25 6.66421 11.25 6.25V4.25H13.25C13.6642 4.25 14 3.91421 14 3.5C14 3.08579 13.6642 2.75 13.25 2.75H11.25V0.75ZM5.125 12.5C4.71079 12.5 4.375 12.8358 4.375 13.25C4.375 13.6642 4.71079 14 5.125 14H7.125C7.53921 14 7.875 13.6642 7.875 13.25C7.875 12.8358 7.53921 12.5 7.125 12.5H5.125ZM5.86928 2.63468C6.21347 2.60854 6.4713 2.30833 6.44516 1.96415C6.41902 1.61996 6.11881 1.36213 5.77463 1.38827C4.67615 1.47169 3.63903 1.94522 2.85463 2.72962C1.98728 3.59697 1.5 4.77336 1.5 5.99999V9.24999C1.5 9.48205 1.40781 9.70461 1.24372 9.86871C1.07962 10.0328 0.857065 10.125 0.625 10.125C0.279822 10.125 0 10.4048 0 10.75C0 11.0952 0.279822 11.375 0.625 11.375H11.625C11.9702 11.375 12.25 11.0952 12.25 10.75C12.25 10.4048 11.9702 10.125 11.625 10.125C11.3929 10.125 11.1704 10.0328 11.0063 9.86871C10.8422 9.70461 10.75 9.48205 10.75 9.24999V8.74999C10.75 8.40481 10.4702 8.12499 10.125 8.12499C9.77982 8.12499 9.5 8.40481 9.5 8.74999V9.24999C9.5 9.55466 9.56543 9.85259 9.68851 10.125H2.56149C2.68457 9.85259 2.75 9.55466 2.75 9.24999V5.99999C2.75 5.10488 3.10558 4.24644 3.73851 3.6135C4.3109 3.04112 5.06772 2.69555 5.86928 2.63468Z" fill="#ffffff"/>
</g>
<defs>
<clipPath id="clip0_41_9">
<rect width="14" height="14" fill="white"/>
</clipPath>
</defs>
</svg>
