<svg width="14" height="14" viewBox="0 0 14 14" fill="none" xmlns="http://www.w3.org/2000/svg">
<g clip-path="url(#clip0_41_13)">
<path fill-rule="evenodd" clip-rule="evenodd" d="M5.32266 2.0813C5.11405 2.63958 5 3.24398 5 3.87502C5 6.70548 7.29454 9.00002 10.125 9.00002V9.25002C10.125 9.64785 10.283 10.0294 10.5643 10.3107C10.8456 10.592 11.2272 10.75 11.625 10.75H0.625C1.02282 10.75 1.40436 10.592 1.68566 10.3107C1.96696 10.0294 2.125 9.64785 2.125 9.25002V6.00002C2.125 4.93916 2.54643 3.92174 3.29657 3.17159C3.85471 2.61346 4.5608 2.2373 5.32266 2.0813Z" fill="#7AF1FF"/>
<path fill-rule="evenodd" clip-rule="evenodd" d="M12.75 3.875C12.75 2.42525 11.5747 1.25 10.125 1.25C9.62669 1.25 9.16082 1.38885 8.76395 1.62997L12.37 5.23605C12.6112 4.83918 12.75 4.37331 12.75 3.875ZM12.9098 6.56952C13.5847 5.87217 14 4.92209 14 3.875C14 1.7349 12.2651 0 10.125 0C9.07791 0 8.12783 0.415307 7.43048 1.09018C7.41415 1.10351 7.39833 1.11778 7.38311 1.13301C7.36789 1.14823 7.35362 1.16404 7.3403 1.18036C6.66535 1.87772 6.25 2.82785 6.25 3.875C6.25 6.0151 7.9849 7.75 10.125 7.75C11.1721 7.75 12.1223 7.33465 12.8196 6.6597C12.836 6.64638 12.8518 6.63211 12.867 6.61689C12.8822 6.60167 12.8965 6.58585 12.9098 6.56952ZM11.4862 6.11996L7.88004 2.51383C7.63888 2.91072 7.5 3.37664 7.5 3.875C7.5 5.32475 8.67525 6.5 10.125 6.5C10.6234 6.5 11.0893 6.36112 11.4862 6.11996ZM4.375 13.25C4.375 12.8358 4.71079 12.5 5.125 12.5H7.125C7.53921 12.5 7.875 12.8358 7.875 13.25C7.875 13.6642 7.53921 14 7.125 14H5.125C4.71079 14 4.375 13.6642 4.375 13.25ZM4.96604 2.83015C5.29022 2.71162 5.45693 2.35272 5.3384 2.02853C5.21986 1.70435 4.86096 1.53764 4.53677 1.65617C3.91058 1.88514 3.33517 2.24902 2.85463 2.72956C1.98728 3.59691 1.5 4.7733 1.5 5.99992V9.24992C1.5 9.48199 1.40781 9.70455 1.24372 9.86864C1.07962 10.0327 0.857065 10.1249 0.625 10.1249C0.279822 10.1249 0 10.4047 0 10.7499C0 11.0951 0.279822 11.3749 0.625 11.3749H11.625C11.9702 11.3749 12.25 11.0951 12.25 10.7499C12.25 10.4047 11.9702 10.1249 11.625 10.1249C11.3929 10.1249 11.1704 10.0327 11.0063 9.86864C10.8905 9.75289 10.8105 9.60803 10.7735 9.4512C10.694 9.11528 10.3574 8.90734 10.0214 8.98676C9.68551 9.06617 9.47758 9.40287 9.55699 9.73879C9.58839 9.8716 9.63247 10.0009 9.68851 10.1249H2.56149C2.68457 9.85253 2.75 9.5546 2.75 9.24992V5.99992C2.75 5.10482 3.10558 4.24637 3.73851 3.61344C4.08917 3.26278 4.50902 2.99726 4.96604 2.83015Z" fill="#0C098C"/>
</g>
<defs>
<clipPath id="clip0_41_13">
<rect width="14" height="14" fill="white"/>
</clipPath>
</defs>
</svg>
