<svg width="145" height="14" viewBox="0 0 145 14" fill="none" xmlns="http://www.w3.org/2000/svg">
<path d="M0.738 11.812H1.998V1.624H0.738V0.436H6.606C7.47 0.436 8.268 0.58 9 0.868C9.744 1.144 10.386 1.552 10.926 2.092C11.466 2.62 11.886 3.274 12.186 4.054C12.498 4.834 12.654 5.722 12.654 6.718C12.654 7.714 12.498 8.602 12.186 9.382C11.886 10.162 11.466 10.822 10.926 11.362C10.386 11.89 9.744 12.298 9 12.586C8.268 12.862 7.47 13 6.606 13H0.738V11.812ZM4.914 11.704H6.084C6.684 11.704 7.194 11.644 7.614 11.524C8.046 11.404 8.394 11.218 8.658 10.966C8.934 10.702 9.132 10.36 9.252 9.94C9.384 9.508 9.45 8.986 9.45 8.374V5.062C9.45 4.45 9.384 3.934 9.252 3.514C9.132 3.082 8.934 2.74 8.658 2.488C8.394 2.224 8.046 2.032 7.614 1.912C7.194 1.792 6.684 1.732 6.084 1.732H4.914V11.704ZM13.295 11.812H14.195L18.101 0.436H20.585L24.491 11.812H25.391V13H20.117V11.812H21.557L20.693 9.166H16.589L15.725 11.812H17.165V13H13.295V11.812ZM16.949 7.924H20.369L18.677 2.632H18.605L16.949 7.924ZM26.3669 11.812H27.6269V1.624H26.3669V0.436H31.8029V1.624H30.5429V11.812H31.8029V13H26.3669V11.812ZM33.2751 11.812H34.5351V1.624H33.2751V0.436H38.8011V1.624H37.4511V11.704H40.8711V9.292H42.9591V13H33.2751V11.812ZM45.6753 11.812H47.0973V7.978L43.7133 1.624H42.8133V0.436H48.1053V1.624H46.8453L49.2573 6.34H49.3293L51.8313 1.624H50.5713V0.436H54.2973V1.624H53.3793L50.0133 7.582V11.812H51.4353V13H45.6753V11.812Z" fill="white"/>
<path d="M59.6775 11.812H60.9375V1.624H59.6775V0.436H66.7515C67.3035 0.436 67.8135 0.496 68.2815 0.616C68.7495 0.735999 69.1515 0.927999 69.4875 1.192C69.8355 1.444 70.1055 1.774 70.2975 2.182C70.4895 2.578 70.5855 3.058 70.5855 3.622C70.5855 4.054 70.5135 4.45 70.3695 4.81C70.2255 5.17 70.0275 5.488 69.7755 5.764C69.5235 6.028 69.2295 6.256 68.8935 6.448C68.5575 6.628 68.1915 6.76 67.7955 6.844L70.1175 10.75C70.3575 11.158 70.6035 11.44 70.8555 11.596C71.1195 11.74 71.4435 11.812 71.8275 11.812H71.9175V13H70.2075C69.7875 13 69.4215 12.97 69.1095 12.91C68.7975 12.838 68.5215 12.73 68.2815 12.586C68.0415 12.442 67.8315 12.262 67.6515 12.046C67.4715 11.83 67.3035 11.566 67.1475 11.254L65.2035 7.438H63.8535V11.812H65.1135V13H59.6775V11.812ZM63.8535 6.214H65.6535C66.9375 6.214 67.5795 5.644 67.5795 4.504V3.442C67.5795 2.302 66.9375 1.732 65.6535 1.732H63.8535V6.214ZM78.5588 11.884C78.9308 11.884 79.2788 11.824 79.6028 11.704C79.9268 11.584 80.2088 11.398 80.4488 11.146C80.7008 10.894 80.8988 10.57 81.0428 10.174C81.1868 9.778 81.2588 9.304 81.2588 8.752V4.684C81.2588 4.132 81.1868 3.658 81.0428 3.262C80.8988 2.866 80.7008 2.542 80.4488 2.29C80.2088 2.038 79.9268 1.852 79.6028 1.732C79.2788 1.612 78.9308 1.552 78.5588 1.552C78.1868 1.552 77.8388 1.612 77.5148 1.732C77.1908 1.852 76.9028 2.038 76.6508 2.29C76.4108 2.542 76.2188 2.866 76.0748 3.262C75.9308 3.658 75.8588 4.132 75.8588 4.684V8.752C75.8588 9.304 75.9308 9.778 76.0748 10.174C76.2188 10.57 76.4108 10.894 76.6508 11.146C76.9028 11.398 77.1908 11.584 77.5148 11.704C77.8388 11.824 78.1868 11.884 78.5588 11.884ZM78.5588 13.216C77.7188 13.216 76.9388 13.072 76.2188 12.784C75.4988 12.496 74.8748 12.082 74.3468 11.542C73.8188 10.99 73.4048 10.312 73.1048 9.508C72.8048 8.692 72.6548 7.762 72.6548 6.718C72.6548 5.674 72.8048 4.75 73.1048 3.946C73.4048 3.13 73.8188 2.452 74.3468 1.912C74.8748 1.36 75.4988 0.939999 76.2188 0.651999C76.9388 0.363999 77.7188 0.219999 78.5588 0.219999C79.3988 0.219999 80.1788 0.363999 80.8988 0.651999C81.6188 0.939999 82.2428 1.36 82.7708 1.912C83.2988 2.452 83.7128 3.13 84.0128 3.946C84.3128 4.75 84.4628 5.674 84.4628 6.718C84.4628 7.762 84.3128 8.692 84.0128 9.508C83.7128 10.312 83.2988 10.99 82.7708 11.542C82.2428 12.082 81.6188 12.496 80.8988 12.784C80.1788 13.072 79.3988 13.216 78.5588 13.216ZM92.7565 13.216C91.7845 13.216 90.9565 13.12 90.2725 12.928C89.6005 12.736 89.0485 12.436 88.6165 12.028C88.1965 11.62 87.8845 11.104 87.6805 10.48C87.4885 9.844 87.3925 9.082 87.3925 8.194V1.624H86.1325V0.436H91.5685V1.624H90.3085V8.23C90.3085 8.842 90.3505 9.37 90.4345 9.814C90.5305 10.258 90.6805 10.63 90.8845 10.93C91.1005 11.23 91.3825 11.452 91.7305 11.596C92.0905 11.74 92.5345 11.812 93.0625 11.812C94.1185 11.812 94.8565 11.53 95.2765 10.966C95.7085 10.39 95.9245 9.496 95.9245 8.284V1.624H94.6645V0.436H98.5885V1.624H97.3285V8.248C97.3285 9.868 96.9685 11.104 96.2485 11.956C95.5285 12.796 94.3645 13.216 92.7565 13.216ZM102.451 11.812H104.161V1.732H101.821V3.784H99.7325V0.436H111.505V3.784H109.417V1.732H107.077V11.812H108.787V13H102.451V11.812ZM112.746 11.812H114.006V1.624H112.746V0.436H118.182V1.624H116.922V11.812H118.182V13H112.746V11.812ZM119.654 11.812H120.914V1.624H119.654V0.436H124.514L129.662 9.382H129.77V1.624H128.51V0.436H132.416V1.624H131.174V13H128.546L122.426 2.542H122.318V11.812H123.578V13H119.654V11.812ZM133.892 11.812H135.152V1.624H133.892V0.436H143.918V3.784H141.83V1.732H138.068V5.8H140.444V4.72H141.776V8.176H140.444V7.096H138.068V11.704H141.974V9.292H144.062V13H133.892V11.812Z" fill="#171717" fill-opacity="0.0666667"/>
</svg>
